<svg width="17" height="17" viewBox="0 0 17 17" fill="none" xmlns="http://www.w3.org/2000/svg">
  <path fill-rule="evenodd" clip-rule="evenodd"
        d="M12.3258 10.9005H11.5753L11.3093 10.644C12.4493 9.31405 13.0383 7.49955 12.7153 5.57105C12.2688 2.93005 10.0648 0.821045 7.40479 0.498045C3.38629 0.00404549 0.00428969 3.38605 0.49829 7.40455C0.82129 10.0645 2.93029 12.2685 5.57129 12.715C7.49979 13.038 9.31429 12.449 10.6443 11.309L10.9008 11.575V12.3255L14.9478 16.363C15.3373 16.7525 15.9643 16.7525 16.3538 16.363L16.3633 16.3535C16.7528 15.964 16.7528 15.337 16.3633 14.9475L12.3258 10.9005ZM6.62567 10.9006C4.26017 10.9006 2.35067 8.99109 2.35067 6.62559C2.35067 4.26009 4.26017 2.35059 6.62567 2.35059C8.99117 2.35059 10.9007 4.26009 10.9007 6.62559C10.9007 8.99109 8.99117 10.9006 6.62567 10.9006Z"
        fill="white"/>
</svg>
